<?xml version="1.0" encoding="utf-8"?>
<!-- Generator: Adobe Illustrator 16.0.0, SVG Export Plug-In . SVG Version: 6.00 Build 0)  -->
<!DOCTYPE svg PUBLIC "-//W3C//DTD SVG 1.1//EN" "http://www.w3.org/Graphics/SVG/1.1/DTD/svg11.dtd">
<svg version="1.1" id="圖層_1" xmlns="http://www.w3.org/2000/svg" xmlns:xlink="http://www.w3.org/1999/xlink" x="0px" y="0px"
	 width="314.067px" height="480.468px" viewBox="0 0 314.067 480.468" enable-background="new 0 0 314.067 480.468"
	 xml:space="preserve">
<path fill="#138888" d="M293.86,15.904c0,8.784-17.282,15.905-24.286,15.905H44.493c-7.005,0-22.664-7.121-22.664-15.905l0,0
	C21.83,7.12,37.488,0,44.493,0h225.081C276.578,0,293.86,7.12,293.86,15.904L293.86,15.904z"/>
<path fill="#138888" d="M293.86,240.231c0,8.784-17.282,15.905-24.286,15.905H44.493c-7.005,0-22.664-7.121-22.664-15.905l0,0
	c0-8.784,15.658-15.904,22.664-15.904h225.081C276.578,224.327,293.86,231.447,293.86,240.231L293.86,240.231z"/>
<path fill="#138888" d="M15.907,221.186C7.123,221.186,0,203.906,0,196.9V63.687c0-7.005,7.123-22.664,15.907-22.664l0,0
	c8.784,0,15.904,15.659,15.904,22.664V196.9C31.811,203.906,24.691,221.186,15.907,221.186L15.907,221.186z"/>
<path fill="#138888" d="M298.163,221.186c-8.784,0-15.907-17.28-15.907-24.286V63.687c0-7.005,7.123-22.664,15.907-22.664l0,0
	c8.784,0,15.904,15.659,15.904,22.664V196.9C314.067,203.906,306.947,221.186,298.163,221.186L298.163,221.186z"/>
<path fill="#138888" d="M15.907,439.439C7.123,439.439,0,422.159,0,415.154V281.94c0-7.005,7.123-22.664,15.907-22.664l0,0
	c8.784,0,15.904,15.659,15.904,22.664v133.214C31.811,422.159,24.691,439.439,15.907,439.439L15.907,439.439z"/>
<path fill="#138888" d="M298.163,439.439c-8.784,0-15.907-17.28-15.907-24.285V281.94c0-7.005,7.123-22.664,15.907-22.664l0,0
	c8.784,0,15.904,15.659,15.904,22.664v133.214C314.067,422.159,306.947,439.439,298.163,439.439L298.163,439.439z"/>
<path fill="#138888" d="M293.86,464.561c0,8.784-17.282,15.907-24.286,15.907H44.493c-7.005,0-22.664-7.123-22.664-15.907l0,0
	c0-8.783,15.658-15.903,22.664-15.903h225.081C276.578,448.657,293.86,455.777,293.86,464.561L293.86,464.561z"/>
<circle fill="#138888" cx="157.033" cy="131.104" r="21.483"/>
<path fill="#138888" d="M178.517,349.358c0,11.864-9.619,21.481-21.484,21.481c-11.865,0-21.483-9.617-21.483-21.481
	c0-11.867,9.618-21.484,21.483-21.484C168.898,327.874,178.517,337.491,178.517,349.358z"/>
</svg>
